<svg width="62" height="57" viewBox="0 0 62 57" fill="none" xmlns="http://www.w3.org/2000/svg">
<g clip-path="url(#clip0_114_13)">
<path d="M7.9608 0.00244141H54.0429C58.4209 0.00244141 62 3.294 62 7.31896V49.6848C62 53.7086 58.4209 56.9979 54.0429 56.9979H7.9608C3.58277 56.9979 0 53.7084 0 49.6848V7.31896C0 3.294 3.58277 0.00244141 7.9608 0.00244141ZM45.1662 6.33267C43.629 6.33267 42.3751 7.48996 42.3751 8.90242V15.0421C42.3751 16.4551 43.629 17.6097 45.1662 17.6097H52.1728C53.7075 17.6097 54.964 16.4551 54.964 15.0421V8.90242C54.964 7.48996 53.7075 6.33267 52.1728 6.33267H45.1662ZM54.9907 24.1051H49.5355C50.0528 25.6583 50.3333 27.2963 50.3333 28.9993C50.3333 38.4769 41.7016 46.1639 31.0583 46.1639C20.4176 46.1639 11.7858 38.4769 11.7858 28.9993C11.7858 27.2963 12.0689 25.6583 12.5837 24.1051H6.89233V48.1842C6.89233 49.4311 7.99986 50.4455 9.35497 50.4455H52.5291C53.8854 50.4455 54.9907 49.4311 54.9907 48.1842V24.1051ZM31.0585 17.286C24.1848 17.286 18.6089 22.2503 18.6089 28.3797C18.6089 34.5028 24.1848 39.471 31.0585 39.471C37.9359 39.471 43.512 34.5028 43.512 28.3797C43.512 22.2501 37.9359 17.286 31.0585 17.286Z" fill="black"/>
</g>
<defs>
<clipPath id="clip0_114_13">
<rect width="62" height="57" fill="white"/>
</clipPath>
</defs>
</svg>
