<svg width="81" height="76" viewBox="0 0 81 76" fill="none" xmlns="http://www.w3.org/2000/svg">
<path d="M47.69 64.21C64.5678 64.21 78.25 50.5278 78.25 33.65C78.25 16.7722 64.5678 3.09 47.69 3.09C30.8122 3.09 17.13 16.7722 17.13 33.65C17.13 50.5278 30.8122 64.21 47.69 64.21Z" fill="#B4B8AB"/>
<path d="M57.18 21.13C59.92 21.13 62.3 21.71 64.34 22.86C66.38 24.01 67.96 25.62 69.09 27.68C70.22 29.74 70.78 32.14 70.78 34.88C70.78 37.62 70.22 39.99 69.09 42.15C67.96 44.31 66.38 46.01 64.34 47.26C62.3 48.51 59.91 49.13 57.18 49.13H41.2L41.49 48.63V70.09C41.49 70.47 41.33 70.81 41.02 71.1C40.71 71.39 40.36 71.53 39.98 71.53C39.5 71.53 39.13 71.39 38.86 71.1C38.6 70.81 38.46 70.48 38.46 70.09V22.57C38.46 22.19 38.6 21.85 38.89 21.56C39.18 21.27 39.51 21.13 39.9 21.13H57.18ZM57.18 46.26C59.39 46.26 61.27 45.77 62.83 44.78C64.39 43.8 65.6 42.44 66.47 40.71C67.34 38.98 67.77 37.04 67.77 34.88C67.77 32.72 67.34 30.76 66.47 29.16C65.61 27.55 64.39 26.29 62.83 25.38C61.27 24.47 59.39 24.01 57.18 24.01H41.27L41.49 23.65V46.47L41.2 46.25H57.18V46.26Z" fill="#163243" stroke="#163243" stroke-width="0.25" stroke-miterlimit="10"/>
<g opacity="0.71">
<path d="M17.71 33.58C17.71 30.76 18.19 28.42 19.14 26.56C20.08 24.7 21.35 23.32 22.94 22.41C24.53 21.5 26.28 21.05 28.19 21.05L43.99 21.1C44.28 21.1 44.53 21.24 44.75 21.53C44.97 21.81 45.07 22.14 45.07 22.52C45.07 22.94 44.96 23.28 44.74 23.54C44.52 23.8 44.27 23.93 43.98 23.93L28.18 23.88C26.63 23.88 25.22 24.2 23.96 24.85C22.7 25.51 21.68 26.54 20.92 27.95C20.16 29.36 19.77 31.24 19.77 33.59C19.77 35.61 20.14 37.59 20.89 39.52C21.64 41.45 22.65 43.04 23.91 44.29C25.17 45.54 26.57 46.17 28.12 46.18L43.92 46.23C44.21 46.23 44.46 46.37 44.68 46.66C44.9 46.94 45 47.27 45 47.65C45 48.07 44.89 48.42 44.67 48.67C44.45 48.93 44.2 49.06 43.91 49.06L6.04 48.93C5.75 48.93 5.5 48.79 5.28 48.5C5.06 48.21 4.96 47.89 4.96 47.51C4.96 47.09 5.07 46.75 5.29 46.49C5.51 46.23 5.76 46.1 6.05 46.1L24.93 46.16L27.52 47.93C26.22 47.93 24.98 47.5 23.79 46.65C22.6 45.8 21.55 44.68 20.63 43.29C19.71 41.9 19 40.35 18.48 38.66C17.96 36.96 17.71 35.27 17.71 33.57V33.58Z" fill="#163243" stroke="#163243" stroke-width="0.25" stroke-miterlimit="10"/>
</g>
</svg>
