<svg width="208" height="88" viewBox="0 0 208 88" fill="none" xmlns="http://www.w3.org/2000/svg">
<path d="M7.72414 45.9984C6.39239 45.9984 5.70749 45.6161 5.70749 44.8341V10.6177C5.70749 10.2354 5.87871 9.93998 6.20214 9.7662C6.54459 9.59242 7.03924 9.48816 7.70511 9.48816H15.9619C19.4245 9.48816 22.4304 9.93998 24.9417 10.8436C27.453 11.7472 29.5268 12.9637 31.1439 14.5103C32.78 16.0569 33.9786 17.7946 34.7776 19.7409C35.5767 21.6872 35.9572 23.7204 35.9572 25.8231C35.9572 28.2733 35.6908 30.5324 35.1391 32.6003C34.5874 34.6683 33.7313 36.5277 32.5898 38.1611C31.4292 39.7946 29.9643 41.2022 28.176 42.3665C26.3876 43.5308 24.2759 44.4171 21.8216 45.0427C19.3674 45.6683 16.5707 45.9637 13.3936 45.9637H7.68609L7.72414 45.9984ZM9.72176 42.4534H13.4126C15.9619 42.4534 18.2449 42.2275 20.2235 41.7931C22.2021 41.3586 23.9144 40.6809 25.3603 39.7946C26.8062 38.9084 27.9857 37.7962 28.918 36.4581C29.8502 35.1201 30.5351 33.5735 30.9917 31.801C31.4483 30.0284 31.6766 28.0474 31.6766 25.8578C31.6766 24.0506 31.3341 22.3823 30.6683 20.8357C30.0024 19.2891 28.9941 17.9337 27.6623 16.7694C26.3306 15.6051 24.6754 14.6841 22.7348 14.0411C20.7943 13.3807 18.5303 13.0679 15.981 13.0679H9.72176V42.4708V42.4534Z" fill="#2D3047"/>
<path d="M54.5256 46.6935C51.9382 46.6935 49.7503 46.2591 47.9429 45.3728C46.1546 44.504 44.7848 43.2528 43.8335 41.654C42.8823 40.0553 42.4257 38.1785 42.4257 36.0063C42.4257 34.3381 42.692 32.8089 43.2247 31.4013C43.7574 29.9937 44.5184 28.7599 45.4887 27.6825C46.459 26.6051 47.6195 25.7883 48.9893 25.1975C50.3591 24.6067 51.8431 24.3286 53.4792 24.3286C54.8109 24.3286 55.9905 24.5371 57.0178 24.9368C58.0452 25.3365 58.8442 25.9447 59.415 26.7441C59.9857 27.5435 60.2901 28.5861 60.2901 29.8373C60.2901 30.8626 60.0618 31.8183 59.5862 32.6872C59.1106 33.5561 58.4447 34.3381 57.5696 34.9984C56.6944 35.6588 55.6861 36.2322 54.5065 36.6841C53.327 37.1359 52.0333 37.5182 50.6255 37.7962C49.2176 38.0743 47.7146 38.248 46.1356 38.3349L46.0404 35.4155C46.9917 35.3634 47.9429 35.2417 48.8942 35.0853C49.8454 34.9116 50.7777 34.703 51.6528 34.425C52.5279 34.1469 53.327 33.7994 54.0119 33.3823C54.6968 32.9653 55.2485 32.4787 55.648 31.94C56.0666 31.4013 56.2568 30.7931 56.2568 30.1327C56.2568 29.2465 55.9715 28.6035 55.3817 28.2386C54.8109 27.8563 54.0499 27.6825 53.0987 27.6825C52.1475 27.6825 51.3294 27.8736 50.5113 28.2386C49.7123 28.6209 49.0083 29.1422 48.4186 29.8373C47.8288 30.5324 47.3532 31.3492 47.0107 32.3049C46.6683 33.2433 46.478 34.286 46.478 35.3981C46.478 37.2054 46.8014 38.7172 47.4673 39.951C48.1332 41.1849 49.0464 42.0885 50.245 42.6967C51.4435 43.3049 52.8704 43.6177 54.5065 43.6177C54.9251 43.6177 55.2675 43.7741 55.4958 44.1043C55.7241 44.4345 55.8383 44.782 55.8383 45.1817C55.8383 45.5814 55.7241 45.9463 55.5149 46.2417C55.3056 46.5545 54.9631 46.6935 54.5065 46.6935H54.5256Z" fill="#2D3047"/>
<path d="M73.0559 46.6935C72.1427 46.6935 71.3246 46.5719 70.6207 46.346C69.8977 46.1027 69.308 45.7377 68.8323 45.2164C68.3567 44.6951 67.9952 44.0521 67.7669 43.2528C67.5196 42.4534 67.4055 41.4976 67.4055 40.3507V9.95734C67.4055 9.59241 67.5577 9.33174 67.8811 9.14059C68.2045 8.96681 68.6801 8.86255 69.327 8.86255C69.9738 8.86255 70.5065 8.94944 70.8299 9.14059C71.1724 9.31437 71.3246 9.59241 71.3246 9.95734V40.2291C71.3246 41.4455 71.5148 42.3144 71.8763 42.8183C72.2378 43.3223 72.9227 43.5655 73.931 43.5655C74.3496 43.5655 74.673 43.7219 74.8823 44.0521C75.0915 44.3649 75.1867 44.7298 75.1296 45.1295C75.0915 45.5292 74.9013 45.8941 74.5588 46.2069C74.2164 46.5197 73.7217 46.6935 73.0559 46.6935Z" fill="#2D3047"/>
<path d="M84.1094 18.0901C83.2533 18.0901 82.6254 17.8815 82.1879 17.4471C81.7693 17.0127 81.541 16.3697 81.541 15.5008C81.541 14.6319 81.7503 13.9368 82.1879 13.5024C82.6064 13.0506 83.2533 12.842 84.1094 12.842C84.9655 12.842 85.5933 13.0679 86.0119 13.5024C86.4304 13.9368 86.6207 14.6146 86.6207 15.5008C86.6778 16.3697 86.4875 17.0127 86.0499 17.4471C85.6124 17.8815 84.9655 18.0901 84.1094 18.0901ZM87.8573 46.6935C86.9441 46.6935 86.126 46.5719 85.4221 46.346C84.6992 46.1027 84.1094 45.7378 83.6338 45.2165C83.1581 44.6951 82.7967 44.0522 82.5684 43.2528C82.321 42.4534 82.2069 41.4977 82.2069 40.3507V25.5798C82.2069 25.2149 82.3591 24.9542 82.6825 24.7631C83.0059 24.5893 83.4816 24.485 84.1284 24.485C84.7753 24.485 85.308 24.5719 85.6314 24.7631C85.9738 24.9368 86.126 25.2149 86.126 25.5798V40.2117C86.126 41.4281 86.3163 42.297 86.6778 42.801C87.0392 43.3049 87.7241 43.5482 88.7325 43.5482C89.151 43.5482 89.4744 43.7046 89.6837 44.0348C89.893 44.3476 89.9881 44.7125 89.931 45.1122C89.893 45.5119 89.7027 45.8768 89.3603 46.1896C89.0178 46.5024 88.5232 46.6762 87.8573 46.6762V46.6935Z" fill="#2D3047"/>
<path d="M107.301 46.6935C103.439 46.6935 100.414 45.7204 98.264 43.7741C96.0951 41.8278 95.0297 39.0821 95.0297 35.5545C95.0297 33.921 95.2961 32.4091 95.8288 31.0537C96.3615 29.6982 97.1034 28.5166 98.0357 27.5087C98.9869 26.5008 100.09 25.7362 101.384 25.1801C102.678 24.624 104.105 24.3459 105.646 24.3459C107.054 24.3459 108.48 24.624 109.945 25.1801C111.41 25.7362 112.685 26.6224 113.788 27.8562C114.131 28.2385 114.245 28.5687 114.15 28.8294C114.055 29.09 113.845 29.3854 113.503 29.733C113.103 30.0979 112.742 30.3238 112.4 30.3933C112.057 30.4802 111.715 30.3933 111.353 30.0979C110.497 29.455 109.679 28.8989 108.861 28.4123C108.062 27.9257 106.977 27.6824 105.646 27.6824C104.637 27.6824 103.724 27.8562 102.906 28.2211C102.088 28.5861 101.384 29.1074 100.832 29.8025C100.281 30.4976 99.843 31.3317 99.5386 32.2875C99.2342 33.2433 99.082 34.338 99.082 35.5545C99.082 37.2227 99.4055 38.6477 100.033 39.8467C100.661 41.0458 101.612 41.9668 102.868 42.5924C104.124 43.2354 105.589 43.5482 107.301 43.5482C107.719 43.5482 108.062 43.7046 108.29 44.0347C108.518 44.3475 108.633 44.7125 108.633 45.1121C108.633 45.5118 108.518 45.8768 108.309 46.1895C108.1 46.5023 107.757 46.6761 107.301 46.6761V46.6935Z" fill="#2D3047"/>
<path d="M127.981 46.6935C126.307 46.6935 124.823 46.3112 123.548 45.5292C122.273 44.7472 121.265 43.6003 120.542 42.0711C119.819 40.5418 119.439 38.6303 119.439 36.3191C119.439 34.8768 119.591 33.5387 119.895 32.2875C120.2 31.0363 120.637 29.9415 121.189 28.951C121.76 27.9605 122.445 27.1264 123.282 26.4486C124.119 25.7709 125.07 25.2496 126.136 24.8847C127.201 24.5197 128.38 24.3459 129.693 24.3459C131.006 24.3459 132.205 24.5545 133.479 24.9715C134.754 25.3886 135.933 25.9794 136.999 26.7267V29.8894C135.781 29.0031 134.602 28.3949 133.479 28.0995C132.357 27.7867 131.234 27.6477 130.15 27.6477C129.332 27.6477 128.571 27.752 127.867 27.9779C127.163 28.2038 126.554 28.5339 126.021 29.0031C125.489 29.455 125.032 30.0284 124.652 30.7061C124.271 31.3839 123.986 32.1832 123.776 33.0869C123.586 33.9905 123.472 35.0332 123.472 36.1974C123.472 37.6398 123.662 38.9083 124.024 39.9858C124.385 41.0632 124.937 41.8973 125.698 42.4881C126.44 43.079 127.41 43.357 128.59 43.357C129.712 43.357 130.778 43.0095 131.786 42.3317C132.794 41.654 133.688 40.6287 134.507 39.2907C135.306 37.9352 135.971 36.2496 136.485 34.2164L137.265 36.9273C136.713 39.3428 135.952 41.2717 134.963 42.6967C133.974 44.1216 132.87 45.1469 131.653 45.7551C130.435 46.3633 129.199 46.6761 127.962 46.6761L127.981 46.6935ZM141.222 46.6935C140.271 46.6935 139.453 46.5719 138.749 46.3459C138.045 46.1027 137.455 45.7377 136.999 45.2164C136.542 44.6951 136.162 44.0521 135.933 43.2527C135.686 42.4534 135.572 41.4976 135.572 40.3507V25.6666C135.572 25.2843 135.743 24.9889 136.067 24.7978C136.39 24.6066 136.885 24.5023 137.532 24.5023C138.178 24.5023 138.692 24.5892 139.015 24.7804C139.339 24.9542 139.491 25.2496 139.491 25.6319V40.229C139.491 41.4455 139.681 42.3144 140.043 42.8183C140.404 43.3222 141.089 43.5655 142.097 43.5655C142.402 43.5655 142.63 43.7219 142.782 44.0521C142.935 44.3649 142.992 44.7298 142.935 45.1295C142.897 45.5292 142.725 45.8941 142.459 46.2069C142.193 46.5197 141.774 46.6935 141.222 46.6935Z" fill="#2D3047"/>
<path d="M158.935 46.6935C157.527 46.6935 156.309 46.485 155.263 46.0679C154.216 45.6508 153.322 45.0426 152.599 44.2606C151.876 43.4613 151.325 42.4881 150.963 41.3065C150.602 40.1248 150.411 38.752 150.411 37.2053V28.4818H146.854C146.435 28.4818 146.112 28.3602 145.922 28.0995C145.731 27.8562 145.617 27.4218 145.617 26.8136C145.617 26.2053 145.712 25.7362 145.922 25.4929C146.112 25.2496 146.435 25.1453 146.854 25.1453H150.411V16.6303C150.411 16.2654 150.564 16.0047 150.887 15.8136C151.21 15.6224 151.705 15.5355 152.371 15.5355C153.037 15.5355 153.493 15.6224 153.836 15.8136C154.178 15.9873 154.331 16.2654 154.331 16.6303V25.1453H160.133C160.59 25.1453 160.913 25.267 161.122 25.4929C161.313 25.7362 161.427 26.1706 161.427 26.8136C161.427 27.4565 161.332 27.8562 161.122 28.0995C160.932 28.3428 160.59 28.4818 160.133 28.4818H154.331V37.0663C154.331 38.1264 154.445 39.0474 154.673 39.8467C154.901 40.6461 155.244 41.3065 155.7 41.8625C156.157 42.4186 156.728 42.8357 157.413 43.1311C158.098 43.4265 158.878 43.5655 159.772 43.5655C160.19 43.5655 160.514 43.7219 160.723 44.0521C160.932 44.3649 161.027 44.7298 160.97 45.1295C160.932 45.5292 160.742 45.8941 160.4 46.2069C160.057 46.5197 159.581 46.6935 158.935 46.6935Z" fill="#2D3047"/>
<path d="M176.647 46.6935C175.239 46.6935 174.021 46.485 172.975 46.0679C171.929 45.6508 171.034 45.0426 170.312 44.2606C169.589 43.4613 169.037 42.4881 168.675 41.3065C168.314 40.1248 168.124 38.752 168.124 37.2053V28.4818H164.566C164.147 28.4818 163.824 28.3602 163.634 28.0995C163.444 27.8562 163.329 27.4218 163.329 26.8136C163.329 26.2053 163.424 25.7362 163.634 25.4929C163.824 25.2496 164.147 25.1453 164.566 25.1453H168.124V16.6303C168.124 16.2654 168.276 16.0047 168.599 15.8136C168.923 15.6224 169.417 15.5355 170.083 15.5355C170.749 15.5355 171.206 15.6224 171.548 15.8136C171.891 15.9873 172.043 16.2654 172.043 16.6303V25.1453H177.845C178.302 25.1453 178.625 25.267 178.835 25.4929C179.025 25.7362 179.139 26.1706 179.139 26.8136C179.139 27.4565 179.044 27.8562 178.835 28.0995C178.644 28.3428 178.302 28.4818 177.845 28.4818H172.043V37.0663C172.043 38.1264 172.157 39.0474 172.385 39.8467C172.614 40.6461 172.956 41.3065 173.413 41.8625C173.869 42.4186 174.44 42.8357 175.125 43.1311C175.81 43.4265 176.59 43.5655 177.484 43.5655C177.902 43.5655 178.226 43.7219 178.435 44.0521C178.644 44.3649 178.74 44.7298 178.682 45.1295C178.644 45.5292 178.454 45.8941 178.112 46.2069C177.769 46.5197 177.294 46.6935 176.647 46.6935Z" fill="#2D3047"/>
<path d="M194.511 46.7804C192.476 46.7804 190.649 46.3112 189.051 45.3554C187.453 44.417 186.197 43.0963 185.284 41.4107C184.371 39.7251 183.914 37.7788 183.914 35.5545C183.914 33.921 184.181 32.4091 184.694 31.0537C185.208 29.6982 185.95 28.5166 186.901 27.5087C187.853 26.5008 188.975 25.7362 190.25 25.1801C191.524 24.624 192.951 24.3459 194.492 24.3459C196.528 24.3459 198.335 24.8325 199.933 25.7883C201.512 26.7441 202.768 28.0647 203.681 29.7504C204.595 31.436 205.051 33.3649 205.051 35.5197C205.051 36.823 204.88 38.0568 204.556 39.1864C204.214 40.3333 203.738 41.3586 203.111 42.297C202.483 43.2354 201.741 44.0347 200.866 44.6951C199.99 45.3554 199.02 45.8768 197.936 46.2417C196.851 46.6066 195.71 46.7804 194.492 46.7804H194.511ZM194.511 43.4439C195.52 43.4439 196.414 43.2527 197.213 42.8878C198.012 42.5055 198.697 41.9842 199.268 41.2891C199.838 40.594 200.295 39.7598 200.599 38.7867C200.904 37.8136 201.056 36.7362 201.056 35.5371C201.056 33.9557 200.79 32.5655 200.257 31.3839C199.724 30.2022 198.963 29.2986 197.993 28.6556C197.023 28.0126 195.862 27.6998 194.53 27.6998C193.56 27.6998 192.666 27.8736 191.829 28.2385C191.011 28.6035 190.307 29.1422 189.736 29.8373C189.165 30.5497 188.709 31.3839 188.404 32.3396C188.1 33.2954 187.948 34.3728 187.948 35.5719C187.948 37.1532 188.214 38.5434 188.766 39.7251C189.317 40.9068 190.078 41.8278 191.049 42.4708C192.019 43.1311 193.18 43.4439 194.511 43.4439Z" fill="#2D3047"/>
<path d="M55.3246 65.6004C56.0856 65.9827 56.6754 66.504 57.0939 67.1991C57.5125 67.8942 57.7218 68.6762 57.7218 69.5625C57.7218 70.4487 57.5125 71.2133 57.0749 71.8737C56.6373 72.534 56.0285 73.0554 55.2485 73.4203C54.4685 73.7852 53.5553 73.9764 52.547 73.9764H49.3127C49.3127 73.9764 49.1986 74.0111 49.1986 74.0806V79.3982C49.1986 79.3982 49.1795 79.5198 49.1225 79.572C49.0654 79.6241 49.0083 79.6415 48.9322 79.6415H46.2687C46.2687 79.6415 46.1356 79.6241 46.0785 79.572C46.0214 79.5198 46.0024 79.4677 46.0024 79.3982V65.2876C46.0024 65.2876 46.0214 65.166 46.0785 65.1138C46.1356 65.0617 46.1926 65.0443 46.2687 65.0443H52.6992C53.7075 65.0443 54.5826 65.2355 55.3436 65.6004H55.3246ZM53.8977 71.0743C54.3163 70.7094 54.5446 70.2228 54.5446 69.632C54.5446 69.0412 54.3353 68.5198 53.8977 68.1549C53.4602 67.79 52.9084 67.5988 52.2045 67.5988H49.3127C49.3127 67.5988 49.1986 67.6336 49.1986 67.7031V71.5435C49.1986 71.5435 49.2366 71.6478 49.3127 71.6478H52.2045C52.9084 71.6478 53.4602 71.4566 53.8977 71.0917V71.0743Z" fill="#2D3047"/>
<path d="M68.2996 79.4503L67.6147 77.3997C67.6147 77.3997 67.5386 77.3128 67.5006 77.3128H61.8882C61.8882 77.3128 61.8121 77.3476 61.7741 77.3997L61.1082 79.4503C61.0701 79.5893 60.956 79.6588 60.8038 79.6588H57.912C57.912 79.6588 57.7598 79.6414 57.7027 79.5893C57.6647 79.5372 57.6457 79.4676 57.6837 79.3634L62.6112 65.2702C62.6492 65.1312 62.7634 65.0616 62.9156 65.0616H66.4923C66.6445 65.0616 66.7396 65.1312 66.7967 65.2702L71.7241 79.3634C71.7241 79.3634 71.7432 79.4329 71.7432 79.4677C71.7432 79.5893 71.6671 79.6588 71.4958 79.6588H68.604C68.4518 79.6588 68.3567 79.5893 68.2996 79.4503ZM62.6873 75.0537H66.7015C66.7015 75.0537 66.8157 75.019 66.7967 74.9321L64.742 68.7457C64.742 68.7457 64.7039 68.6588 64.6659 68.6762C64.6278 68.6762 64.6088 68.7109 64.5898 68.7457L62.5731 74.9321C62.5731 74.9321 62.5731 75.0537 62.6682 75.0537H62.6873Z" fill="#2D3047"/>
<path d="M83.0059 65.1312C83.0059 65.1312 83.082 65.2354 83.082 65.3049V67.3555C83.082 67.3555 83.063 67.4771 83.0059 67.5293C82.9489 67.5814 82.8918 67.5988 82.8157 67.5988H78.7253C78.7253 67.5988 78.6112 67.6335 78.6112 67.703V79.3981C78.6112 79.3981 78.5921 79.5198 78.5351 79.5719C78.478 79.6241 78.4209 79.6414 78.3448 79.6414H75.6813C75.6813 79.6414 75.5482 79.6241 75.4911 79.5719C75.434 79.5198 75.415 79.4676 75.415 79.3981V67.703C75.415 67.703 75.3769 67.5988 75.3008 67.5988H71.3246C71.3246 67.5988 71.1914 67.5814 71.1344 67.5293C71.0773 67.4771 71.0583 67.425 71.0583 67.3555V65.3049C71.0583 65.3049 71.0773 65.1833 71.1344 65.1312C71.1914 65.079 71.2485 65.0616 71.3246 65.0616H82.8347C82.8347 65.0616 82.9679 65.079 83.025 65.1312H83.0059Z" fill="#2D3047"/>
<path d="M85.2319 79.5892C85.2319 79.5892 85.1558 79.485 85.1558 79.4155V65.3223C85.1558 65.3223 85.1748 65.2006 85.2319 65.1485C85.2889 65.0964 85.346 65.079 85.4221 65.079H88.0856C88.0856 65.079 88.2188 65.0964 88.2759 65.1485C88.3329 65.2006 88.352 65.2528 88.352 65.3223V79.4155C88.352 79.4155 88.3329 79.5371 88.2759 79.5892C88.2188 79.6414 88.1617 79.6588 88.0856 79.6588H85.4221C85.4221 79.6588 85.2889 79.6414 85.2319 79.5892Z" fill="#2D3047"/>
<path d="M93.4316 79.2939C92.5184 78.9463 91.8145 78.425 91.3199 77.7646C90.8252 77.1043 90.5779 76.3397 90.5779 75.4534V75.0016C90.5779 75.0016 90.5969 74.88 90.654 74.8278C90.7111 74.7757 90.7681 74.7583 90.8442 74.7583H93.4506C93.4506 74.7583 93.5838 74.7757 93.6409 74.8278C93.698 74.88 93.717 74.9321 93.717 75.0016V75.3144C93.717 75.8705 94.0024 76.3397 94.5541 76.722C95.1248 77.1043 95.8858 77.2954 96.8371 77.2954C97.6361 77.2954 98.2449 77.139 98.6445 76.8262C99.044 76.5134 99.2342 76.1311 99.2342 75.662C99.2342 75.3318 99.1201 75.0537 98.8728 74.8104C98.6254 74.5845 98.302 74.376 97.8835 74.2022C97.4649 74.0285 96.799 73.7852 95.8858 73.4898C94.8585 73.177 94.0024 72.8468 93.2985 72.5166C92.5945 72.1864 92.0047 71.7346 91.5101 71.1438C91.0345 70.5703 90.7872 69.8578 90.7872 69.0063C90.7872 68.1548 91.0155 67.4424 91.4911 66.8168C91.9667 66.1912 92.6135 65.7046 93.4506 65.3744C94.2877 65.0443 95.258 64.8705 96.3424 64.8705C97.503 64.8705 98.5303 65.0616 99.4435 65.4266C100.357 65.8089 101.061 66.3302 101.574 67.0079C102.088 67.6856 102.335 68.4676 102.335 69.3539V69.6667C102.335 69.6667 102.316 69.7883 102.259 69.8405C102.202 69.8926 102.145 69.91 102.069 69.91H99.4435C99.4435 69.91 99.3103 69.8926 99.2533 69.8405C99.1962 69.7883 99.1772 69.7362 99.1772 69.6667V69.4929C99.1772 68.9021 98.9108 68.4155 98.3971 67.9984C97.8835 67.5814 97.1605 67.3902 96.2473 67.3902C95.5244 67.3902 94.9726 67.5292 94.5731 67.8073C94.1736 68.0853 93.9643 68.4676 93.9643 68.9542C93.9643 69.3018 94.0785 69.5972 94.3258 69.8231C94.5541 70.0664 94.9156 70.2749 95.3722 70.4661C95.8288 70.6572 96.5517 70.9005 97.522 71.2307C98.6064 71.5956 99.4435 71.9084 100.071 72.1864C100.68 72.4645 101.251 72.8815 101.746 73.4202C102.24 73.9589 102.488 74.6888 102.488 75.5577C102.488 76.861 101.955 77.9037 100.908 78.6509C99.8621 79.4155 98.4352 79.7804 96.6468 79.7804C95.4292 79.7804 94.3638 79.6067 93.4506 79.2417L93.4316 79.2939Z" fill="#2D3047"/>
<path d="M107.015 79.2939C106.102 78.9463 105.398 78.425 104.904 77.7646C104.409 77.1043 104.162 76.3397 104.162 75.4534V75.0016C104.162 75.0016 104.181 74.88 104.238 74.8278C104.295 74.7757 104.352 74.7583 104.428 74.7583H107.034C107.034 74.7583 107.168 74.7757 107.225 74.8278C107.282 74.88 107.301 74.9321 107.301 75.0016V75.3144C107.301 75.8705 107.586 76.3397 108.138 76.722C108.709 77.1043 109.47 77.2954 110.421 77.2954C111.22 77.2954 111.829 77.139 112.228 76.8262C112.628 76.5134 112.818 76.1311 112.818 75.662C112.818 75.3318 112.704 75.0537 112.457 74.8104C112.209 74.5845 111.886 74.376 111.467 74.2022C111.049 74.0285 110.383 73.7852 109.47 73.4898C108.442 73.177 107.586 72.8468 106.882 72.5166C106.178 72.1864 105.589 71.7346 105.094 71.1438C104.618 70.5703 104.371 69.8578 104.371 69.0063C104.371 68.1548 104.599 67.4424 105.075 66.8168C105.551 66.1912 106.197 65.7046 107.034 65.3744C107.872 65.0443 108.842 64.8705 109.926 64.8705C111.087 64.8705 112.114 65.0616 113.027 65.4266C113.941 65.8089 114.644 66.3302 115.158 67.0079C115.672 67.6856 115.919 68.4676 115.919 69.3539V69.6667C115.919 69.6667 115.9 69.7883 115.843 69.8405C115.786 69.8926 115.729 69.91 115.653 69.91H113.027C113.027 69.91 112.894 69.8926 112.837 69.8405C112.78 69.7883 112.761 69.7362 112.761 69.6667V69.4929C112.761 68.9021 112.495 68.4155 111.981 67.9984C111.467 67.5814 110.744 67.3902 109.831 67.3902C109.108 67.3902 108.556 67.5292 108.157 67.8073C107.757 68.0853 107.548 68.4676 107.548 68.9542C107.548 69.3018 107.662 69.5972 107.91 69.8231C108.138 70.0664 108.499 70.2749 108.956 70.4661C109.413 70.6572 110.136 70.9005 111.106 71.2307C112.19 71.5956 113.027 71.9084 113.655 72.1864C114.264 72.4645 114.835 72.8815 115.329 73.4202C115.824 73.9589 116.071 74.6888 116.071 75.5577C116.071 76.861 115.539 77.9037 114.492 78.6509C113.446 79.4155 112.019 79.7804 110.231 79.7804C109.013 79.7804 107.948 79.6067 107.034 79.2417L107.015 79.2939Z" fill="#2D3047"/>
<path d="M129.332 67.5118C129.332 67.5118 129.218 67.5814 129.142 67.5814H121.646C121.646 67.5814 121.532 67.6161 121.532 67.6856V70.9179C121.532 70.9179 121.57 71.0221 121.646 71.0221H126.554C126.554 71.0221 126.687 71.0395 126.744 71.0916C126.801 71.1438 126.82 71.1959 126.82 71.2654V73.2812C126.82 73.2812 126.801 73.4028 126.744 73.455C126.687 73.5071 126.63 73.5245 126.554 73.5245H121.646C121.646 73.5245 121.532 73.5592 121.532 73.6288V77C121.532 77 121.57 77.1043 121.646 77.1043H129.142C129.142 77.1043 129.275 77.1216 129.332 77.1738C129.389 77.2259 129.408 77.278 129.408 77.3476V79.3633C129.408 79.3633 129.389 79.485 129.332 79.5371C129.275 79.5893 129.218 79.6066 129.142 79.6066H118.602C118.602 79.6066 118.469 79.5893 118.411 79.5371C118.354 79.485 118.335 79.4329 118.335 79.3633V65.2701C118.335 65.2701 118.354 65.1485 118.411 65.0964C118.469 65.0442 118.526 65.0269 118.602 65.0269H129.142C129.142 65.0269 129.275 65.0442 129.332 65.0964C129.389 65.1485 129.408 65.2006 129.408 65.2701V67.2859C129.408 67.2859 129.389 67.4076 129.332 67.4597V67.5118Z" fill="#2D3047"/>
<path d="M140.1 79.4676L137.246 73.6983C137.246 73.6983 137.17 73.6114 137.113 73.6114H134.982C134.982 73.6114 134.868 73.6461 134.868 73.7156V79.4155C134.868 79.4155 134.849 79.5371 134.792 79.5892C134.735 79.6414 134.678 79.6588 134.602 79.6588H131.938C131.938 79.6588 131.805 79.6414 131.748 79.5892C131.691 79.5371 131.672 79.485 131.672 79.4155V65.3223C131.672 65.3223 131.691 65.2006 131.748 65.1485C131.805 65.0964 131.862 65.079 131.938 65.079H138.464C139.434 65.079 140.29 65.2528 141.032 65.6177C141.774 65.9826 142.345 66.4866 142.744 67.1643C143.144 67.8246 143.353 68.6066 143.353 69.4755C143.353 70.4139 143.087 71.2306 142.573 71.9084C142.059 72.5861 141.337 73.0553 140.404 73.3333C140.328 73.3681 140.309 73.4028 140.328 73.4723L143.429 79.3807C143.429 79.3807 143.467 79.485 143.467 79.5024C143.467 79.6066 143.391 79.6761 143.22 79.6761H140.404C140.252 79.6761 140.138 79.6066 140.081 79.485L140.1 79.4676ZM134.868 67.6856V71.248C134.868 71.248 134.906 71.3523 134.982 71.3523H137.969C138.616 71.3523 139.13 71.1785 139.529 70.831C139.929 70.4834 140.138 70.0316 140.138 69.4755C140.138 68.9194 139.929 68.4676 139.529 68.1027C139.13 67.7377 138.597 67.564 137.969 67.564H134.982C134.982 67.564 134.868 67.5987 134.868 67.6682V67.6856Z" fill="#2D3047"/>
<path d="M145.75 79.5892C145.75 79.5892 145.674 79.485 145.674 79.4155V65.3223C145.674 65.3223 145.693 65.2006 145.75 65.1485C145.807 65.0964 145.864 65.079 145.941 65.079H148.604C148.604 65.079 148.737 65.0964 148.794 65.1485C148.851 65.2006 148.87 65.2528 148.87 65.3223V79.4155C148.87 79.4155 148.851 79.5371 148.794 79.5892C148.737 79.6414 148.68 79.6588 148.604 79.6588H145.941C145.941 79.6588 145.807 79.6414 145.75 79.5892Z" fill="#2D3047"/>
<path d="M162.683 67.5118C162.683 67.5118 162.568 67.5814 162.492 67.5814H154.996C154.996 67.5814 154.882 67.6161 154.882 67.6856V70.9179C154.882 70.9179 154.92 71.0221 154.996 71.0221H159.905C159.905 71.0221 160.038 71.0395 160.095 71.0916C160.152 71.1438 160.171 71.1959 160.171 71.2654V73.2812C160.171 73.2812 160.152 73.4028 160.095 73.455C160.038 73.5071 159.981 73.5245 159.905 73.5245H154.996C154.996 73.5245 154.882 73.5592 154.882 73.6288V77C154.882 77 154.92 77.1043 154.996 77.1043H162.492C162.492 77.1043 162.625 77.1216 162.683 77.1738C162.74 77.2259 162.759 77.278 162.759 77.3476V79.3633C162.759 79.3633 162.74 79.485 162.683 79.5371C162.625 79.5893 162.568 79.6066 162.492 79.6066H151.952C151.952 79.6066 151.819 79.5893 151.762 79.5371C151.705 79.485 151.686 79.4329 151.686 79.3633V65.2701C151.686 65.2701 151.705 65.1485 151.762 65.0964C151.819 65.0442 151.876 65.0269 151.952 65.0269H162.492C162.492 65.0269 162.625 65.0442 162.683 65.0964C162.74 65.1485 162.759 65.2006 162.759 65.2701V67.2859C162.759 67.2859 162.74 67.4076 162.683 67.4597V67.5118Z" fill="#2D3047"/>
</svg>
