<svg width="42" height="36" viewBox="0 0 42 36" fill="none" xmlns="http://www.w3.org/2000/svg">
<path fill-rule="evenodd" clip-rule="evenodd" d="M42 2.57143C42 3.25341 41.7542 3.90747 41.3166 4.3897C40.879 4.87194 40.2855 5.14286 39.6667 5.14286H2.33333C1.71449 5.14286 1.121 4.87194 0.683417 4.3897C0.245833 3.90747 0 3.25341 0 2.57143C0 1.88944 0.245833 1.23539 0.683417 0.753154C1.121 0.270917 1.71449 0 2.33333 0H39.6667C40.2855 0 40.879 0.270917 41.3166 0.753154C41.7542 1.23539 42 1.88944 42 2.57143ZM42 18C42 18.682 41.7542 19.336 41.3166 19.8183C40.879 20.3005 40.2855 20.5714 39.6667 20.5714H2.33333C1.71449 20.5714 1.121 20.3005 0.683417 19.8183C0.245833 19.336 0 18.682 0 18C0 17.318 0.245833 16.664 0.683417 16.1817C1.121 15.6995 1.71449 15.4286 2.33333 15.4286H39.6667C40.2855 15.4286 40.879 15.6995 41.3166 16.1817C41.7542 16.664 42 17.318 42 18ZM39.6667 36C40.2855 36 40.879 35.7291 41.3166 35.2468C41.7542 34.7646 42 34.1106 42 33.4286C42 32.7466 41.7542 32.0925 41.3166 31.6103C40.879 31.1281 40.2855 30.8571 39.6667 30.8571H2.33333C1.71449 30.8571 1.121 31.1281 0.683417 31.6103C0.245833 32.0925 0 32.7466 0 33.4286C0 34.1106 0.245833 34.7646 0.683417 35.2468C1.121 35.7291 1.71449 36 2.33333 36H39.6667Z" fill="#EEF0EB"/>
</svg>
