<svg width="92" height="91" viewBox="0 0 92 91" fill="none" xmlns="http://www.w3.org/2000/svg">
<g clip-path="url(#clip0_143_2)">
<path d="M68.0752 52.2898C67.896 52.2047 61.189 48.9379 59.9972 48.5136C59.5106 48.3408 58.9893 48.1721 58.4349 48.1721C57.5293 48.1721 56.7685 48.6185 56.1759 49.4954C55.5059 50.4805 53.4777 52.8255 52.851 53.526C52.7692 53.6185 52.6575 53.729 52.5906 53.729C52.5305 53.729 51.4925 53.3062 51.1783 53.1712C43.9835 50.0798 38.5223 42.6459 37.7735 41.3923C37.6665 41.2121 37.6621 41.1302 37.6612 41.1302C37.6875 41.0348 37.9294 40.7949 38.0543 40.6711C38.4196 40.3136 38.8153 39.8423 39.1983 39.3864C39.3796 39.1705 39.5612 38.9542 39.7395 38.7503C40.2951 38.111 40.5424 37.6146 40.8292 37.0396L40.9794 36.7409C41.6796 35.365 41.0816 34.2039 40.8883 33.8289C40.7297 33.5152 37.8977 26.7546 37.5966 26.0443C36.8726 24.3304 35.9159 23.5323 34.5863 23.5323C34.463 23.5323 34.5863 23.5323 34.069 23.5539C33.439 23.5802 30.0084 24.0269 28.4916 24.9727C26.8831 25.9758 24.162 29.1732 24.162 34.7963C24.162 39.8571 27.4088 44.6355 28.8029 46.4528C28.8375 46.4986 28.9012 46.5917 28.9935 46.7252C34.3321 54.4372 40.9875 60.1525 47.7343 62.8183C54.2295 65.3847 57.3053 65.6813 59.0539 65.6813H59.0542C59.789 65.6813 60.3771 65.6243 60.8959 65.5738L61.2251 65.5427C63.469 65.346 68.3999 62.8186 69.5215 59.7356C70.4051 57.3072 70.6381 54.6541 70.0502 53.6912C69.6476 53.0364 68.9537 52.707 68.0752 52.2898Z" fill="#284B63"/>
<path d="M46.8166 0C21.9001 0 1.62905 19.9 1.62905 44.3604C1.62905 52.2718 3.76954 60.016 7.82441 66.7937L0.0632553 89.4388C-0.0813161 89.861 0.0262163 90.3278 0.341944 90.6457C0.569853 90.8759 0.879009 91 1.19474 91C1.31571 91 1.43758 90.982 1.55646 90.9445L25.4287 83.4411C31.9613 86.8935 39.3446 88.7158 46.8169 88.7158C71.731 88.7161 91.9999 68.8182 91.9999 44.3604C91.9999 19.9 71.731 0 46.8166 0ZM46.8166 79.4755C39.7854 79.4755 32.9754 77.4673 27.1214 73.6677C26.9246 73.5398 26.6961 73.4742 26.4661 73.4742C26.3445 73.4742 26.2226 73.4925 26.104 73.5298L14.1455 77.2897L18.0059 66.0243C18.1308 65.6597 18.0684 65.2576 17.8384 64.9468C13.3806 58.9219 11.0241 51.8035 11.0241 44.3604C11.0241 24.9955 27.0805 9.24064 46.8163 9.24064C66.5497 9.24064 82.6043 24.9955 82.6043 44.3604C82.6046 63.723 66.5503 79.4755 46.8166 79.4755Z" fill="#284B63"/>
</g>
<defs>
<clipPath id="clip0_143_2">
<rect width="92" height="91" fill="white"/>
</clipPath>
</defs>
</svg>
