<svg width="66" height="57" viewBox="0 0 66 57" fill="none" xmlns="http://www.w3.org/2000/svg">
<path d="M15.3631 18.315H2.11347C1.52543 18.315 1.04895 18.7276 1.04895 19.2364V56.0784C1.04895 56.5874 1.52543 56.9998 2.11347 56.9998H15.3631C15.9511 56.9998 16.4276 56.5874 16.4276 56.0784V19.2364C16.4276 18.7276 15.9511 18.315 15.3631 18.315Z" fill="black"/>
<path d="M8.74308 0C3.9221 0 0 3.39105 0 7.5592C0 11.7292 3.9221 15.1215 8.74308 15.1215C13.5602 15.1215 17.4791 11.729 17.4791 7.5592C17.4794 3.39105 13.5602 0 8.74308 0Z" fill="black"/>
<path d="M49.0644 17.3994C43.7429 17.3994 39.8091 19.3794 37.4231 21.6292V19.2364C37.4231 18.7276 36.9466 18.315 36.3586 18.315H23.6697C23.0817 18.315 22.6052 18.7276 22.6052 19.2364V56.0784C22.6052 56.5874 23.0817 56.9998 23.6697 56.9998H36.8904C37.4784 56.9998 37.9549 56.5874 37.9549 56.0784V37.8502C37.9549 31.7077 39.8825 29.3147 44.8296 29.3147C50.2173 29.3147 50.6454 33.1509 50.6454 38.1662V56.0786C50.6454 56.5876 51.1219 57 51.7099 57H64.9355C65.5235 57 66 56.5876 66 56.0786V35.8701C66 26.7365 63.9879 17.3994 49.0644 17.3994Z" fill="black"/>
</svg>
